# Alias OBJ Model File
# Exported from SketchUp, (c) 2000-2012 Trimble Navigation Limited
# File units = inches

mtllib Dumbo Table.mtl

g Mesh1 Group1 Model

usemtl Color_000
v 0.273606 28 -2
vt 0 2
vn 0 -1 -0
v 0.273606 28 -36
vt 0 36
v 4.27361 28 -36
vt -4 36
v 4.27361 28 -2
vt -4 2
f 1/1/1 2/2/1 3/3/1 4/4/1 

vt -2 28
vn -1 0 -0
v 0.273606 30 -38
vt -38 30
vt -36 28
f 1/5/2 5/6/2 2/7/2

v 0.273606 30 -0
vt 0 30
f 1/5/2 6/8/2 5/6/2

v 0.273606 0 -0
vt 0 0
f 6/8/2 1/5/2 7/9/2

v 0.273606 2 -2
vt -2 2
f 8/10/2 7/9/2 1/5/2

v 0.273606 0 -38
vt -38 0
f 7/9/2 8/10/2 9/11/2

v 0.273606 2 -36
vt -36 2
f 9/11/2 8/10/2 10/12/2

vn 0 1 -0
v 4.27361 2 -2
vt 4 2
v 4.27361 2 -36
vt 4 36
f 10/2/3 8/1/3 11/13/3 12/14/3 

vn 0 0 -1
vt 0 28
vt -4 28
f 8/1/4 1/15/4 4/16/4 11/4/4 

vt 2 28
vn 1 0 -0
v 4.27361 30 -0
vt 2 2
f 4/17/5 13/8/5 11/18/5

v 4.27361 30 -38
vt 38 30
f 13/8/5 4/17/5 14/19/5

vt 36 28
f 14/19/5 4/17/5 3/20/5

v 4.27361 0 -38
vt 38 0
f 14/19/5 3/20/5 15/21/5

vt 36 2
f 12/22/5 15/21/5 3/20/5

f 11/18/5 15/21/5 12/22/5

v 4.27361 0 -0
f 11/18/5 16/9/5 15/21/5

f 16/9/5 11/18/5 13/8/5

vn 0 0 1
vt 4 0
vt 4 30
f 6/8/6 7/9/6 16/23/6 13/24/6 

vt 0 38
vt -4 38
vt -4 0
f 7/9/1 9/25/1 15/26/1 16/27/1 

vt -4 30
f 9/9/4 5/8/4 14/28/4 15/27/4 

f 9/11/2 10/12/2 5/6/2

f 2/7/2 5/6/2 10/12/2

vt 4 28
f 2/15/6 10/1/6 12/13/6 3/29/6 

vt 4 38
f 5/25/3 6/9/3 13/23/3 14/30/3 

g Mesh2 Group2 Model

v 79.75 28 -2
v 79.75 28 -36
v 83.75 28 -36
v 83.75 28 -2
f 17/1/1 18/2/1 19/3/1 20/4/1 

v 79.75 30 -38
f 17/5/2 21/6/2 18/7/2

v 79.75 30 -0
f 17/5/2 22/8/2 21/6/2

v 79.75 0 -0
f 22/8/2 17/5/2 23/9/2

v 79.75 2 -2
f 24/10/2 23/9/2 17/5/2

v 79.75 0 -38
f 23/9/2 24/10/2 25/11/2

v 79.75 2 -36
f 25/11/2 24/10/2 26/12/2

v 83.75 2 -2
v 83.75 2 -36
f 26/2/3 24/1/3 27/13/3 28/14/3 

f 24/1/4 17/15/4 20/16/4 27/4/4 

v 83.75 30 -0
f 20/17/5 29/8/5 27/18/5

v 83.75 30 -38
f 29/8/5 20/17/5 30/19/5

f 30/19/5 20/17/5 19/20/5

v 83.75 0 -38
f 30/19/5 19/20/5 31/21/5

f 28/22/5 31/21/5 19/20/5

f 27/18/5 31/21/5 28/22/5

v 83.75 0 -0
f 27/18/5 32/9/5 31/21/5

f 32/9/5 27/18/5 29/8/5

f 22/8/6 23/9/6 32/23/6 29/24/6 

f 23/9/1 25/25/1 31/26/1 32/27/1 

f 25/9/4 21/8/4 30/28/4 31/27/4 

f 25/11/2 26/12/2 21/6/2

f 18/7/2 21/6/2 26/12/2

f 18/15/6 26/1/6 28/13/6 19/29/6 

f 21/25/3 22/9/3 29/23/3 30/30/3 

g Mesh3 Group3 Model

v 0 30 -38.25
vt -38.25 0
v 0 30 0.25
vt 0.25 0
v 0 31.625 0.25
vt 0.25 1.625
v 0 31.625 -38.25
vt -38.25 1.625
f 33/31/2 34/32/2 35/33/2 36/34/2 

vt 0 38.25
v 84 30 -38.25
vt -84 38.25
v 84 30 0.25
vt -84 -0.25
vt 0 -0.25
f 33/35/1 37/36/1 38/37/1 34/38/1 

vt -84 0
vt 0 1.625
v 84 31.625 -38.25
vt -84 1.625
f 37/39/4 33/9/4 36/40/4 39/41/4 

vt 84 38.25
v 84 31.625 0.25
vt 84 -0.25
f 39/42/3 36/35/3 35/38/3 40/43/3 

vt 84 0
vt 84 1.625
f 34/9/6 38/44/6 40/45/6 35/40/6 

vt -0.25 0
vt 38.25 0
vt 38.25 1.625
vt -0.25 1.625
f 38/46/5 37/47/5 39/48/5 40/49/5 

