# Alias OBJ Model File
# Exported from SketchUp, (c) 2000-2012 Trimble Navigation Limited
# File units = inches

mtllib Raw Steel Legs.mtl

g Mesh1 Group1 Model

usemtl Metal_Rough
v 2 28 -2
vt 0 2
vn 0 -1 -0
v 2 28 -36
vt 0 36
v 6 28 -36
vt -4 36
v 6 28 -2
vt -4 2
f 1/1/1 2/2/1 3/3/1 4/4/1 

vt -2 28
vn -1 0 -0
v 2 30 -38
vt -38 30
vt -36 28
f 1/5/2 5/6/2 2/7/2

v 2 30 -0
vt 0 30
f 1/5/2 6/8/2 5/6/2

v 2 0 -0
vt 0 0
f 6/8/2 1/5/2 7/9/2

v 2 2 -2
vt -2 2
f 8/10/2 7/9/2 1/5/2

v 2 0 -38
vt -38 0
f 7/9/2 8/10/2 9/11/2

v 2 2 -36
vt -36 2
f 9/11/2 8/10/2 10/12/2

vn 0 1 -0
v 6 2 -2
vt 4 2
v 6 2 -36
vt 4 36
f 10/2/3 8/1/3 11/13/3 12/14/3 

vn 0 0 -1
vt 0 28
vt -4 28
f 8/1/4 1/15/4 4/16/4 11/4/4 

vt 2 28
vn 1 0 -0
v 6 30 -0
vt 2 2
f 4/17/5 13/8/5 11/18/5

v 6 30 -38
vt 38 30
f 13/8/5 4/17/5 14/19/5

vt 36 28
f 14/19/5 4/17/5 3/20/5

v 6 0 -38
vt 38 0
f 14/19/5 3/20/5 15/21/5

vt 36 2
f 12/22/5 15/21/5 3/20/5

f 11/18/5 15/21/5 12/22/5

v 6 0 -0
f 11/18/5 16/9/5 15/21/5

f 16/9/5 11/18/5 13/8/5

vn 0 0 1
vt 4 0
vt 4 30
f 6/8/6 7/9/6 16/23/6 13/24/6 

vt 0 38
vt -4 38
vt -4 0
f 7/9/1 9/25/1 15/26/1 16/27/1 

vt -4 30
f 9/9/4 5/8/4 14/28/4 15/27/4 

f 9/11/2 10/12/2 5/6/2

f 2/7/2 5/6/2 10/12/2

vt 4 28
f 2/15/6 10/1/6 12/13/6 3/29/6 

vt 4 38
f 5/25/3 6/9/3 13/23/3 14/30/3 

g Mesh2 Group2 Model

v 78 28 -2
v 78 28 -36
v 82 28 -36
v 82 28 -2
f 17/1/1 18/2/1 19/3/1 20/4/1 

v 78 30 -38
f 17/5/2 21/6/2 18/7/2

v 78 30 -0
f 17/5/2 22/8/2 21/6/2

v 78 0 -0
f 22/8/2 17/5/2 23/9/2

v 78 2 -2
f 24/10/2 23/9/2 17/5/2

v 78 0 -38
f 23/9/2 24/10/2 25/11/2

v 78 2 -36
f 25/11/2 24/10/2 26/12/2

v 82 2 -2
v 82 2 -36
f 26/2/3 24/1/3 27/13/3 28/14/3 

f 24/1/4 17/15/4 20/16/4 27/4/4 

v 82 30 -0
f 20/17/5 29/8/5 27/18/5

v 82 30 -38
f 29/8/5 20/17/5 30/19/5

f 30/19/5 20/17/5 19/20/5

v 82 0 -38
f 30/19/5 19/20/5 31/21/5

f 28/22/5 31/21/5 19/20/5

f 27/18/5 31/21/5 28/22/5

v 82 0 -0
f 27/18/5 32/9/5 31/21/5

f 32/9/5 27/18/5 29/8/5

f 22/8/6 23/9/6 32/23/6 29/24/6 

f 23/9/1 25/25/1 31/26/1 32/27/1 

f 25/9/4 21/8/4 30/28/4 31/27/4 

f 25/11/2 26/12/2 21/6/2

f 18/7/2 21/6/2 26/12/2

f 18/15/6 26/1/6 28/13/6 19/29/6 

f 21/25/3 22/9/3 29/23/3 30/30/3 

